<?xml version="1.0" encoding="UTF-8" standalone="no"?>
<!-- Created with Inkscape (http://www.inkscape.org/) -->

<svg
   xmlns:dc="http://purl.org/dc/elements/1.1/"
   xmlns:cc="http://creativecommons.org/ns#"
   xmlns:rdf="http://www.w3.org/1999/02/22-rdf-syntax-ns#"
   xmlns:svg="http://www.w3.org/2000/svg"
   xmlns="http://www.w3.org/2000/svg"
   xmlns:sodipodi="http://sodipodi.sourceforge.net/DTD/sodipodi-0.dtd"
   xmlns:inkscape="http://www.inkscape.org/namespaces/inkscape"
   width="385"
   height="415"
   id="svg2"
   version="1.1"
   inkscape:version="0.48.3.1 r9886"
   sodipodi:docname="Nou document 1">
  <defs
     id="defs4" />
  <sodipodi:namedview
     id="base"
     pagecolor="#ffffff"
     bordercolor="#666666"
     borderopacity="1.0"
     inkscape:pageopacity="0.0"
     inkscape:pageshadow="2"
     inkscape:zoom="0.7"
     inkscape:cx="360.7107"
     inkscape:cy="343.01961"
     inkscape:document-units="px"
     inkscape:current-layer="capa1"
     showgrid="false"
     inkscape:window-width="1366"
     inkscape:window-height="741"
     inkscape:window-x="0"
     inkscape:window-y="-5"
     inkscape:window-maximized="1" />
  <metadata
     id="metadata7">
    <rdf:RDF>
      <cc:Work
         rdf:about="">
        <dc:format>image/svg+xml</dc:format>
        <dc:type
           rdf:resource="http://purl.org/dc/dcmitype/StillImage" />
        <dc:title></dc:title>
      </cc:Work>
    </rdf:RDF>
  </metadata>
  <g
     inkscape:label="Capa 1"
     inkscape:groupmode="layer"
     id="capa1">
    <path
       style="fill:#000000"
       d="m 386.36229,68.702421 c -0.79773,0.31923 -0.56078,0.55617 0.60417,0.60417 1.05416,0.04342 1.64479,-0.19293 1.3125,-0.52522 -0.33229,-0.33225 -1.1948,-0.36777 -1.91667,-0.0789 z m -161.0625,-0.02255 c -1.2375,0.23835 -0.225,0.43337 2.25,0.43337 2.475,0 3.4875,-0.19502 2.25,-0.43337 -1.2375,-0.23836 -3.2625,-0.23836 -4.5,0 z m 11.01166,0.99849 c -1.24391,0.23919 -0.46166,0.44398 1.73834,0.45508 2.19996,0.01109 3.21775,-0.18461 2.26166,-0.4349 -0.95609,-0.25031 -2.75609,-0.25939 -4,-0.0202 z m 143.98834,14.98384 c -1.7875,0.22183 -0.325,0.40333 3.25,0.40333 3.575,0 5.0375,-0.1815 3.25,-0.40333 -1.7875,-0.22182 -4.7125,-0.22182 -6.5,0 z M 196.98659,223.282 c 9.86524,6.65698 18.52966,12.1036 19.25428,12.1036 1.45134,0 37.29629,-25.76805 37.32969,-26.83536 0.0114,-0.36555 0.67311,-6.96464 1.4704,-14.66464 0.7973,-7.7 1.46293,-15.2375 1.47923,-16.75 l 0.0296,-2.75 -8.75,0.10021 c -4.8125,0.0551 -13.15427,0.39262 -18.53726,0.75 -10.69354,0.70996 -11.67073,1.28144 -11.69743,6.84077 -0.0209,4.36729 -1.50126,4.91935 -5.09112,1.89868 -5.39862,-4.54264 -15.43502,-9.54378 -23.5254,-11.72271 -9.31488,-2.50871 -26.44168,-2.95932 -35.89879,-0.94451 -7.48203,1.59404 -20.68515,6.96897 -19.96822,8.12898 1.09241,1.76757 34.16521,23.65571 36.70782,24.29387 1.45336,0.36477 4.1315,2.18968 5.95143,4.05536 1.81994,1.86569 11.38053,8.83877 21.24577,15.49575 z m 21.5632,19.04458 c 0,0.58246 0.45,1.05902 1,1.05902 0.55,0 1,-0.19844 1,-0.44098 0,-0.24254 -0.45,-0.7191 -1,-1.05902 -0.55,-0.33992 -1,-0.14148 -1,0.44098 z m -59.49996,176.46341 c 7.23523,0.73044 34.02145,-0.39056 45.61996,-1.90918 41.48285,-5.43146 68.08949,-14.76171 95.92585,-33.6387 21.24932,-14.41006 34.49868,-31.65811 36.45025,-47.45106 1.46916,-11.88902 -9.97448,-17.37677 -20.33681,-9.75244 -2.12823,1.5659 -6.79451,5.44759 -10.36951,8.62598 -22.22826,19.76222 -48.73276,34.71306 -72.78974,41.05974 -34.55349,9.11578 -68.78124,9.11442 -99,-0.004 -45.477001,-13.72255 -68.626041,-39.31196 -77.648971,-85.8347 -2.22313,-11.46263 -2.50214,-42.43305 -0.48197,-53.5 6.40818,-35.1055 24.51559,-64.05745 51.674461,-82.62235 19.85084,-13.56938 45.26342,-22.70432 73.45648,-26.40506 11.75493,-1.543 36.70241,-0.77654 46.5,1.42862 24.81507,5.58516 44.70708,15.69942 57.66881,29.32217 16.06694,16.88632 23.60394,37.99574 22.56634,63.20321 -0.7929,19.2629 -5.75362,33.91804 -16.17298,47.77886 -5.52322,7.34751 -11.72541,12.11402 -21.84894,16.79138 -12.49315,5.77219 -19.42542,5.89419 -22.27075,0.39194 -1.73464,-3.35443 -1.89729,-0.25177 2.48418,-47.38877 1.02247,-11 1.70602,-20.16374 1.519,-20.36386 -0.40879,-0.43741 -27.45061,22.06638 -27.43431,22.83045 0.006,0.29338 3.79956,3.05829 8.42959,6.14425 l 8.41824,5.61083 -2.58786,3.63714 -2.58786,3.63713 -3.09173,-2.31735 c -1.70045,-1.27454 -5.60762,-4.19863 -8.6826,-6.49797 -3.07498,-2.29934 -6.17507,-4.18062 -6.8891,-4.18062 -0.71402,0 -4.27313,2.56015 -7.90913,5.68922 -3.63599,3.12907 -7.43703,6.38377 -8.44675,7.23268 -1.69629,1.42613 -2.05535,1.2787 -4.7231,-1.93922 -1.58799,-1.91547 -2.89935,-3.94578 -2.91415,-4.51179 -0.0148,-0.56601 3.5731,-3.64739 7.9731,-6.84751 4.4,-3.20012 8,-5.95108 8,-6.11324 0,-0.2759 -23.09116,-17.22978 -25.42879,-18.67021 -0.74353,-0.45816 -1.07121,3.9773 -1.07121,14.5 0,17.40753 -1.66204,25.05929 -8.54415,39.3359 -9.20717,19.09981 -22.84723,25.3591 -30.93419,14.19538 -5.08631,-7.02145 -6.47165,-12.88294 -6.35093,-26.87121 0.11661,-13.51284 1.68788,-22.59357 5.79963,-33.5175 3.31336,-8.80276 5.78072,-12.75337 12.20037,-19.53453 l 5.25604,-5.55202 -15.09446,-10.94798 c -8.30196,-6.02138 -15.64291,-11.27002 -16.31323,-11.66363 -1.90052,-1.11598 -15.98363,12.51248 -21.73051,21.02898 -6.40573,9.49289 -12.231331,21.87501 -15.009811,31.9029 -1.84606,6.66267 -2.16553,10.52039 -2.21773,26.78378 -0.06866,21.37397 1.07914,27.10047 8.21786,41 7.373861,14.35736 24.179671,27.56039 40.221111,31.59862 6.96348,1.75294 25.75453,1.74521 33,-0.0136 11.04471,-2.68106 24.21235,-9.79829 32.3212,-17.4699 4.41793,-4.1797 5.65555,-4.40494 8.27381,-1.50581 3.06683,3.39583 12.7655,7.77605 22.17129,10.01325 12.64353,3.00731 33.84988,2.32807 46.7337,-1.49687 31.267,-9.28254 52.87208,-29.74031 65.8987,-62.39923 10.52598,-26.38959 10.72826,-59.23678 0.5565,-90.36359 -2.73367,-8.36535 -7.30921,-17.95954 -14.31848,-30.0236 l -2.70789,-4.66071 3.78558,-1.22569 c 2.08208,-0.67413 6.81752,-2.71217 10.52322,-4.52897 12.26536,-6.01337 19.22948,-12.49754 24.08372,-22.42393 3.05078,-6.23849 3.17598,-6.98278 3.11298,-18.499999 l -0.0657,-12 9.5566,0.32428 c 5.25614,0.17835 9.32248,0.09014 9.03632,-0.19603 -0.28617,-0.28616 -4.85689,-0.60113 -10.15717,-0.69993 -8.9032,-0.16596 -9.68028,-0.34136 -10.20699,-2.30398 -1.02005,-3.80085 -0.64621,-4.49157 2.65257,-4.90094 l 3.25,-0.40333 -3.65574,-0.16003 c -3.48289,-0.15247 -3.80221,-0.47303 -6.75341,-6.7796 l -3.09767,-6.61956 2.52665,-7.00446 c 3.51102,-9.73337 4.07622,-18.8426 2.03155,-32.74219 -0.92927,-6.31718 -1.86482,-11.6610096 -2.079,-11.8751796 -1.5756,-1.57561 -20.564,9.0722896 -28.84599,16.1756196 l -5.87361,5.0377 -6.62639,-1.90648 c -8.02139,-2.30783 -25.35743,-3.08484 -33.12639,-1.48474 -3.025,0.62303 -8.26357,2.26648 -11.64126,3.65212 l -6.14126,2.51934 -8.89853,-5.05944 c -8.87256,-5.04468 -23.70306,-11.07317 -27.24075,-11.07317 -2.64463,0 -3.0782,1.85747 -3.0782,13.18744 0,14.4019 3.49378,26.33039 9.63393,32.89224 l 2.41389,2.57967 -2.27391,8.2018 -2.27391,8.2018 -9.5,-0.53387 c -11.68789,-0.65681 -10.75765,0.07824 1.25,0.98772 7.61025,0.57641 8.75,0.90387 8.75,2.51395 0,1.01817 -0.45385,2.13171 -1.00856,2.47454 -0.55471,0.34283 -6.51721,-0.06475 -13.25,-0.90573 -19.55759,-2.44292 -32.28481,-2.89304 -46.74144,-1.6531 -27.67103,2.37333 -53.00104,9.10331 -75.41813,20.037989 -6.645031,3.24133 -13.656871,6.88557 -15.581871,8.09831 -3.23528,2.0382 -3.34873,2.27089 -1.5,3.07647 1.51437,0.65989 1.29811,0.73317 -0.89063,0.30179 -2.20191,-0.43398 -3.75061,0.10188 -6.5,2.249 -1.98515,1.55029 -5.63158,4.16225 -8.10316,5.80435 -6.73295,4.4733 -25.90069,23.8942 -32.55566,32.98563 -24.47508,33.4357 -35.6544905,71.54634 -34.1670305,116.47559 0.89725,27.10175 4.5357305,42.73453 14.7850905,63.52441 17.99159,36.49425 49.56366,64.25497 87.065581,76.55511 14.63019,4.79851 25.01801,6.68922 51.36581,9.34918 z"
       id="path3789"
       inkscape:connector-curvature="0" />
    <path
       style="fill:none;stroke:#000000;stroke-width:1px;stroke-linecap:butt;stroke-linejoin:miter;stroke-opacity:1"
       d="M 138.57143,182.71932 108.21429,162.00504 130,183.79076"
       id="path3791"
       inkscape:connector-curvature="0"
       sodipodi:nodetypes="ccc" />
    <path
       style="fill:none;stroke:#000000;stroke-width:1px;stroke-linecap:butt;stroke-linejoin:miter;stroke-opacity:1"
       d="m 245.35714,223.79075 40.6835,-33.65041 -37.91564,20.97184"
       id="path3793"
       inkscape:connector-curvature="0"
       sodipodi:nodetypes="ccc" />
    <path
       style="fill:none;stroke:#000000;stroke-width:1px;stroke-linecap:butt;stroke-linejoin:miter;stroke-opacity:1"
       d="m 157.92027,203.49674 26.54402,19.61222"
       id="path3795"
       inkscape:connector-curvature="0"
       sodipodi:nodetypes="cc" />
  </g>
  <g
     inkscape:groupmode="layer"
     id="layer1"
     inkscape:label="Capa" />
</svg>
